<svg width="36" height="36" viewBox="0 0 36 36" fill="none" xmlns="http://www.w3.org/2000/svg">
<path d="M18 35C8.6109 35 1 27.3891 1 18C1 8.6109 8.6109 1 18 1C27.3891 1 35 8.6109 35 18C34.9898 27.384 27.384 34.9898 18 35ZM10.7359 22.7379C10.5166 22.7379 10.299 22.7651 10.0848 22.8161L9.8298 22.8858L8.82 24.6147C8.63555 24.9224 8.57632 25.2891 8.65455 25.6392C8.73278 25.9893 8.94249 26.296 9.24036 26.4959C9.53823 26.6957 9.9015 26.7736 10.2551 26.7133C10.6087 26.653 10.9257 26.4592 11.1405 26.1719L11.2459 26.0138L12.5889 23.6831C12.3712 23.392 12.0892 23.1552 11.7647 22.9912C11.4403 22.8272 11.0824 22.7405 10.7189 22.7379H10.7359ZM20.0587 12.322C19.5298 12.8189 19.1791 13.476 19.0608 14.192C18.8713 15.1792 19.0529 16.2017 19.5708 17.0633L24.7388 26.0155C24.9186 26.3181 25.2055 26.5423 25.5426 26.6436C25.8797 26.745 26.2426 26.7162 26.5595 26.5629C26.8755 26.407 27.1211 26.1377 27.2471 25.8087C27.3732 25.4797 27.3705 25.1152 27.2395 24.7881L27.1562 24.6181L25.7962 22.2534H27.8192C28.1735 22.2504 28.5134 22.1132 28.7705 21.8693C29.0275 21.6255 29.1824 21.2932 29.204 20.9396C29.2256 20.5859 29.1122 20.2373 28.8867 19.964C28.6612 19.6907 28.3405 19.5131 27.9892 19.4671L27.8192 19.4569H24.1812L20.4514 12.9969L20.0621 12.3169L20.0587 12.322V12.322ZM8.242 19.445C8.05932 19.4454 7.87852 19.4819 7.70996 19.5523C7.5414 19.6228 7.38839 19.7258 7.25969 19.8554C7.13099 19.9851 7.02913 20.1388 6.95994 20.3079C6.89076 20.477 6.85561 20.658 6.8565 20.8407C6.8565 21.5445 7.3801 22.1395 8.0788 22.2296L8.2488 22.2381H20.9648C21.1055 21.9555 21.1763 21.6433 21.1713 21.3276C21.1663 21.012 21.0856 20.7022 20.9359 20.4242C20.8086 20.1638 20.619 19.9389 20.3838 19.7696C20.1485 19.6002 19.8751 19.4916 19.5878 19.4535L19.3821 19.4433H15.0454L21.043 9.058C21.2277 8.73606 21.2778 8.35419 21.1824 7.9955C21.1145 7.74378 20.9777 7.51601 20.7874 7.33781C20.5971 7.1596 20.3608 7.03805 20.1052 6.98682C19.8496 6.93558 19.5847 6.95671 19.3404 7.04781C19.0962 7.13892 18.8822 7.29639 18.7225 7.5025L18.6171 7.6589L18 8.7367L17.3897 7.6589C17.2098 7.35586 16.9227 7.13142 16.5852 7.03004C16.2477 6.92866 15.8844 6.95773 15.5673 7.1115C15.2515 7.26798 15.0061 7.53766 14.8801 7.86685C14.7541 8.19604 14.7567 8.56062 14.8873 8.888L14.9706 9.058L16.3816 11.54L11.8171 19.445H8.242Z" fill="#373737"/>
</svg>
