<svg width="36" height="36" viewBox="0 0 36 36" fill="none" xmlns="http://www.w3.org/2000/svg">
<path d="M34.5213 15.8906L8.69946 1.22942C8.32232 1.01245 7.89383 0.89877 7.45784 0.900004C7.02186 0.901238 6.59403 1.01734 6.21813 1.23644C5.84695 1.446 5.53856 1.74963 5.32452 2.11625C5.11049 2.48286 4.9985 2.8993 5.00002 3.32295V32.677C4.9985 33.1007 5.11049 33.5171 5.32452 33.8837C5.53856 34.2503 5.84695 34.554 6.21813 34.7635C6.59402 34.9826 7.02185 35.0987 7.45784 35.1C7.89383 35.1012 8.32232 34.9875 8.69946 34.7705L34.5213 20.1094C34.9024 19.9019 35.2203 19.5967 35.4417 19.2256C35.6632 18.8545 35.78 18.4312 35.78 18C35.78 17.5688 35.6632 17.1455 35.4417 16.7744C35.2203 16.4033 34.9024 16.098 34.5213 15.8906V15.8906ZM22.2654 19.727L25.1674 22.6056L11.5949 30.3113L22.2654 19.727ZM11.5932 5.68684L25.1675 13.3942L22.2654 16.273L11.5932 5.68684ZM27.3822 21.3484L24.0065 18L27.3823 14.6516L33.2798 18L27.3822 21.3484Z" fill="#373737"/>
</svg>
