<svg width="20" height="20" viewBox="0 0 20 20" fill="none" xmlns="http://www.w3.org/2000/svg">
<path d="M6.18232 7.54946V16.9988H3.17508V7.54946H6.18232ZM6.37351 4.63218L6.37462 4.68934C6.37462 5.12617 6.19737 5.51926 5.9142 5.79454L5.91309 5.79513C5.74628 5.95475 5.55088 6.07818 5.33819 6.15827C5.12549 6.23835 4.89973 6.27351 4.67396 6.26171H4.67786H4.65947C4.43889 6.27265 4.21847 6.23692 4.0114 6.15665C3.80433 6.07638 3.61486 5.95322 3.45434 5.79454L3.4549 5.79513C3.30585 5.64466 3.18846 5.4633 3.11024 5.26265C3.03201 5.06199 2.99467 4.84646 3.00061 4.62985V4.63218L3.00005 4.59194C3.00005 4.14752 3.18066 3.74743 3.46884 3.4669L3.46995 3.46632C3.8047 3.14733 4.24675 2.98036 4.69904 3.00207H4.6957C4.9173 2.99074 5.13883 3.02593 5.34724 3.10556C5.55564 3.18519 5.74671 3.30765 5.90918 3.46574L5.90807 3.46457C6.05545 3.6128 6.17266 3.79069 6.25264 3.98754C6.33263 4.18438 6.37374 4.39612 6.37351 4.61002V4.63451V4.63335V4.63218ZM16.9989 11.5842V16.9988H14.0011V11.9452C14.0316 11.3907 13.9004 10.8395 13.6249 10.3647L13.6316 10.3769C13.5019 10.1859 13.3272 10.0332 13.1244 9.93389C12.9216 9.83454 12.6976 9.79187 12.4744 9.81003H12.4788C12.13 9.797 11.7881 9.91444 11.5145 10.1413L11.5179 10.139C11.2653 10.352 11.0675 10.6276 10.9426 10.9409L10.9382 10.9543C10.8618 11.205 10.828 11.4677 10.8384 11.7306V11.7265V17H7.84062C7.85288 14.4638 7.85901 12.4073 7.85901 10.8307C7.85901 9.25403 7.85604 8.31329 7.85009 8.00846L7.84117 7.55063H10.8389V8.92353H10.8205C10.9398 8.72232 11.063 8.54794 11.1985 8.38464L11.194 8.38989C11.3506 8.20967 11.519 8.04695 11.7001 7.90114L11.7091 7.89415C11.941 7.70793 12.2042 7.56868 12.485 7.48356L12.5017 7.47947C12.8271 7.38015 13.1644 7.33026 13.5034 7.33134H13.5474H13.5452C14.0124 7.31074 14.4784 7.39662 14.9108 7.58301C15.3432 7.76941 15.7318 8.05188 16.0496 8.41088L16.0513 8.41321C16.6838 9.13485 17 10.1917 17 11.5836L16.9989 11.5842Z" fill="#696969"/>
</svg>
