<svg width="20" height="20" viewBox="0 0 20 20" fill="none" xmlns="http://www.w3.org/2000/svg">
<path d="M17.9914 5.54204C17.4033 5.80262 16.7716 5.97869 16.1075 6.05828C16.7927 5.64824 17.3054 5.00289 17.5498 4.24264C16.906 4.62506 16.2014 4.89424 15.4666 5.03848C14.9724 4.51087 14.3179 4.16117 13.6047 4.04366C12.8914 3.92615 12.1593 4.04741 11.5221 4.3886C10.8848 4.7298 10.378 5.27185 10.0803 5.93059C9.78269 6.58934 9.71085 7.32792 9.87598 8.03167C8.57143 7.96617 7.29523 7.6271 6.13021 7.03646C4.96518 6.44581 3.93737 5.6168 3.11347 4.60323C2.83176 5.08918 2.66977 5.65261 2.66977 6.25266C2.66946 6.79284 2.80248 7.32474 3.05704 7.80118C3.3116 8.27762 3.67983 8.68386 4.12904 8.98386C3.60807 8.96728 3.09859 8.82651 2.64301 8.57327V8.61552C2.64296 9.37315 2.90502 10.1075 3.38475 10.6939C3.86447 11.2803 4.53229 11.6826 5.27491 11.8327C4.79162 11.9635 4.28493 11.9827 3.7931 11.889C4.00262 12.5409 4.41075 13.111 4.96035 13.5194C5.50996 13.9278 6.17351 14.1541 6.85813 14.1667C5.69595 15.079 4.26066 15.5739 2.78316 15.5717C2.52144 15.5718 2.25993 15.5565 2 15.5259C3.49975 16.4902 5.24557 17.002 7.02857 17C13.0643 17 16.3638 12.001 16.3638 7.66545C16.3638 7.52459 16.3603 7.38232 16.354 7.24147C16.9958 6.77733 17.5498 6.20258 17.99 5.54415L17.9914 5.54204V5.54204Z" fill="#696969"/>
</svg>
