<svg width="88" height="22" viewBox="0 0 88 22" fill="none" xmlns="http://www.w3.org/2000/svg">
<path d="M16.4071 15.6701C16.4071 16.5047 16.245 17.2877 15.9208 18.0192C15.5966 18.7506 15.1531 19.393 14.5905 19.9463C14.0374 20.4902 13.3889 20.9216 12.6451 21.2404C11.9013 21.5593 11.105 21.7187 10.2563 21.7187H0V1.54731H10.2563C11.105 1.54731 11.9013 1.70673 12.6451 2.02558C13.3889 2.34442 14.0374 2.78048 14.5905 3.33376C15.1531 3.87766 15.5966 4.51535 15.9208 5.2468C16.245 5.97826 16.4071 6.7613 16.4071 7.59591C16.4071 7.97101 16.3547 8.3555 16.2498 8.74936C16.1449 9.14322 15.9971 9.52302 15.8064 9.88875C15.6156 10.2545 15.3868 10.5874 15.1197 10.8875C14.8527 11.1876 14.5571 11.4361 14.2329 11.633C14.5666 11.8112 14.867 12.055 15.1341 12.3645C15.4011 12.6645 15.6299 12.9974 15.8207 13.3632C16.0114 13.7289 16.1544 14.1134 16.2498 14.5166C16.3547 14.9105 16.4071 15.295 16.4071 15.6701ZM4.10536 17.6816H10.2563C10.5423 17.6816 10.8094 17.63 11.0573 17.5269C11.3052 17.4237 11.5198 17.283 11.701 17.1049C11.8917 16.9173 12.0395 16.7016 12.1444 16.4578C12.2493 16.214 12.3018 15.9514 12.3018 15.6701C12.3018 15.3887 12.2493 15.1262 12.1444 14.8824C12.0395 14.6385 11.8917 14.4275 11.701 14.2494C11.5198 14.0618 11.3052 13.9165 11.0573 13.8133C10.8094 13.7101 10.5423 13.6586 10.2563 13.6586H4.10536V17.6816ZM4.10536 9.62148H10.2563C10.5423 9.62148 10.8094 9.56991 11.0573 9.46675C11.3052 9.3636 11.5198 9.22293 11.701 9.04476C11.8917 8.8572 12.0395 8.64152 12.1444 8.3977C12.2493 8.1445 12.3018 7.87724 12.3018 7.59591C12.3018 7.31458 12.2493 7.052 12.1444 6.80818C12.0395 6.56437 11.8917 6.35337 11.701 6.17519C11.5198 5.98764 11.3052 5.84229 11.0573 5.73913C10.8094 5.63598 10.5423 5.5844 10.2563 5.5844H4.10536V9.62148Z" fill="black"/>
<path d="M25.19 18.0332C25.3426 18.0801 25.4952 18.113 25.6478 18.1317C25.8004 18.1411 25.9529 18.1458 26.1055 18.1458C26.487 18.1458 26.8541 18.0942 27.207 17.991C27.5598 17.8879 27.8888 17.7425 28.194 17.555C28.5087 17.3581 28.7852 17.1236 29.0236 16.8517C29.2716 16.5703 29.4718 16.2609 29.6244 15.9233L32.4853 18.7506C32.1229 19.257 31.7033 19.7119 31.2265 20.1151C30.7592 20.5183 30.249 20.8606 29.6959 21.1419C29.1524 21.4233 28.5754 21.6343 27.9651 21.7749C27.3643 21.925 26.7445 22 26.1055 22C25.0279 22 24.0123 21.8031 23.0587 21.4092C22.1146 21.0153 21.2849 20.4668 20.5697 19.7634C19.864 19.0601 19.3062 18.2255 18.8961 17.2596C18.486 16.2843 18.281 15.2153 18.281 14.0524C18.281 12.8615 18.486 11.7737 18.8961 10.789C19.3062 9.80435 19.864 8.96505 20.5697 8.2711C21.2849 7.57715 22.1146 7.03794 23.0587 6.65345C24.0123 6.26897 25.0279 6.07673 26.1055 6.07673C26.7445 6.07673 27.3691 6.15175 27.9794 6.30179C28.5897 6.45183 29.1667 6.66752 29.7102 6.94885C30.2633 7.23018 30.7783 7.57715 31.2551 7.98977C31.7319 8.39301 32.1515 8.84783 32.5139 9.35422L25.19 18.0332ZM27.1927 10.1138C27.0115 10.0482 26.8303 10.006 26.6491 9.98721C26.4774 9.96846 26.2962 9.95908 26.1055 9.95908C25.5715 9.95908 25.0661 10.0575 24.5893 10.2545C24.122 10.442 23.7119 10.714 23.3591 11.0703C23.0158 11.4267 22.744 11.8581 22.5437 12.3645C22.3435 12.8615 22.2433 13.4241 22.2433 14.0524C22.2433 14.1931 22.2481 14.3525 22.2576 14.5307C22.2767 14.7089 22.3006 14.8917 22.3292 15.0793C22.3673 15.2575 22.4102 15.4309 22.4579 15.5997C22.5056 15.7685 22.5676 15.9186 22.6439 16.0499L27.1927 10.1138Z" fill="black"/>
<path d="M42.8989 21.7187H33.9729V17.8926H42.8989C43.1659 17.8926 43.3948 17.7988 43.5855 17.6113C43.7762 17.4237 43.8716 17.1986 43.8716 16.9361C43.8716 16.6641 43.7762 16.4859 43.5855 16.4015C43.3948 16.3171 43.1659 16.2749 42.8989 16.2749H38.8364C38.1594 16.2749 37.5252 16.1483 36.934 15.8951C36.3427 15.6419 35.8277 15.2997 35.3891 14.8683C34.9504 14.4275 34.6023 13.9165 34.3449 13.335C34.0969 12.7536 33.9729 12.13 33.9729 11.4642C33.9729 10.7984 34.0969 10.1748 34.3449 9.59335C34.6023 9.01194 34.9504 8.50554 35.3891 8.07417C35.8277 7.6428 36.3427 7.3052 36.934 7.06138C37.5252 6.80818 38.1594 6.68159 38.8364 6.68159H46.7468V10.5077H38.8364C38.5694 10.5077 38.3406 10.6014 38.1498 10.789C37.9591 10.9766 37.8637 11.2016 37.8637 11.4642C37.8637 11.7361 37.9591 11.9706 38.1498 12.1675C38.3406 12.3551 38.5694 12.4488 38.8364 12.4488H42.8989C43.5664 12.4488 44.1958 12.5614 44.7871 12.7864C45.3783 13.0021 45.8933 13.3069 46.3319 13.7008C46.7706 14.0946 47.1187 14.5682 47.3762 15.1215C47.6336 15.6748 47.7624 16.2796 47.7624 16.9361C47.7624 17.6019 47.6336 18.2255 47.3762 18.8069C47.1187 19.3789 46.7706 19.8853 46.3319 20.3261C45.8933 20.7575 45.3783 21.0997 44.7871 21.3529C44.1958 21.5968 43.5664 21.7187 42.8989 21.7187Z" fill="black"/>
<path d="M53.7559 21.7187H49.8508V6.65345H50.7949L52.0823 8.11637C52.7117 7.55371 53.4222 7.12234 54.2137 6.82225C55.0147 6.51279 55.8491 6.35806 56.7169 6.35806C57.6515 6.35806 58.5336 6.53623 59.3632 6.89258C60.1929 7.23956 60.9177 7.72251 61.5375 8.34143C62.1574 8.95098 62.6437 9.66837 62.9966 10.4936C63.3589 11.3095 63.5401 12.1816 63.5401 13.11V21.7187H59.635V13.11C59.635 12.7161 59.5587 12.3457 59.4062 11.9987C59.2536 11.6424 59.0438 11.3329 58.7768 11.0703C58.5098 10.8078 58.1998 10.6014 57.847 10.4514C57.4941 10.3014 57.1175 10.2263 56.7169 10.2263C56.3069 10.2263 55.9207 10.3014 55.5583 10.4514C55.1959 10.6014 54.8812 10.8078 54.6142 11.0703C54.3472 11.3329 54.1374 11.6424 53.9848 11.9987C53.8322 12.3457 53.7559 12.7161 53.7559 13.11V21.7187Z" fill="black"/>
<path d="M70.9355 2.5601C70.9355 2.91645 70.864 3.24936 70.7209 3.55882C70.5874 3.86829 70.4015 4.14024 70.1631 4.37468C69.9247 4.59974 69.6433 4.78261 69.3191 4.92327C69.0044 5.05456 68.6659 5.1202 68.3035 5.1202C67.9411 5.1202 67.5978 5.05456 67.2736 4.92327C66.9589 4.78261 66.6823 4.59974 66.4439 4.37468C66.2151 4.14024 66.0291 3.86829 65.8861 3.55882C65.7525 3.24936 65.6858 2.91645 65.6858 2.5601C65.6858 2.21313 65.7525 1.88491 65.8861 1.57545C66.0291 1.25661 66.2151 0.984655 66.4439 0.759591C66.6823 0.525149 66.9589 0.342285 67.2736 0.210997C67.5978 0.0703325 67.9411 0 68.3035 0C68.6659 0 69.0044 0.0703325 69.3191 0.210997C69.6433 0.342285 69.9247 0.525149 70.1631 0.759591C70.4015 0.984655 70.5874 1.25661 70.7209 1.57545C70.864 1.88491 70.9355 2.21313 70.9355 2.5601ZM70.2632 21.7187H66.3295V6.65345H70.2632V21.7187Z" fill="black"/>
<path d="M77.1865 21.7187H73.2528V0.661125H77.1865V13.9399L83.0084 6.68159H87.5L82.4219 12.9552L87.5 21.7187H83.0084L79.9044 16.2468L77.1865 19.7916V21.7187Z" fill="black"/>
</svg>

